<?xml version="1.0" encoding="UTF-8"?>
<svg width="512" height="512" viewBox="0 0 512 512" fill="none" xmlns="http://www.w3.org/2000/svg">
  <circle cx="256" cy="256" r="256" fill="#1E3A8A"/>
  <g filter="url(#filter0_d)">
    <circle cx="256" cy="256" r="200" fill="#3B82F6"/>
  </g>
  <g filter="url(#filter1_d)">
    <path d="M256 120C207.4 120 168 159.4 168 208C168 247.7 195.1 281.2 232 291.7V304C232 321.7 246.3 336 264 336H280C297.7 336 312 321.7 312 304V291.7C348.9 281.2 376 247.7 376 208C376 159.4 336.6 120 288 120H256Z" fill="white"/>
    <path d="M264 352C259.6 352 256 355.6 256 360V392C256 396.4 259.6 400 264 400H280C284.4 400 288 396.4 288 392V360C288 355.6 284.4 352 280 352H264Z" fill="white"/>
    <path d="M152 192C147.6 192 144 195.6 144 200V216C144 220.4 147.6 224 152 224H184C188.4 224 192 220.4 192 216V200C192 195.6 188.4 192 184 192H152Z" fill="white"/>
    <path d="M360 192C355.6 192 352 195.6 352 200V216C352 220.4 355.6 224 360 224H392C396.4 224 400 220.4 400 216V200C400 195.6 396.4 192 392 192H360Z" fill="white"/>
  </g>
  <defs>
    <filter id="filter0_d" x="52" y="52" width="408" height="408" filterUnits="userSpaceOnUse" color-interpolation-filters="sRGB">
      <feFlood flood-opacity="0" result="BackgroundImageFix"/>
      <feColorMatrix in="SourceAlpha" type="matrix" values="0 0 0 0 0 0 0 0 0 0 0 0 0 0 0 0 0 0 127 0"/>
      <feOffset/>
      <feGaussianBlur stdDeviation="2"/>
      <feColorMatrix type="matrix" values="0 0 0 0 0 0 0 0 0 0 0 0 0 0 0 0 0 0 0.25 0"/>
      <feBlend mode="normal" in2="BackgroundImageFix" result="effect1_dropShadow"/>
      <feBlend mode="normal" in="SourceGraphic" in2="effect1_dropShadow" result="shape"/>
    </filter>
    <filter id="filter1_d" x="140" y="116" width="264" height="288" filterUnits="userSpaceOnUse" color-interpolation-filters="sRGB">
      <feFlood flood-opacity="0" result="BackgroundImageFix"/>
      <feColorMatrix in="SourceAlpha" type="matrix" values="0 0 0 0 0 0 0 0 0 0 0 0 0 0 0 0 0 0 127 0"/>
      <feOffset/>
      <feGaussianBlur stdDeviation="2"/>
      <feColorMatrix type="matrix" values="0 0 0 0 0 0 0 0 0 0 0 0 0 0 0 0 0 0 0.25 0"/>
      <feBlend mode="normal" in2="BackgroundImageFix" result="effect1_dropShadow"/>
      <feBlend mode="normal" in="SourceGraphic" in2="effect1_dropShadow" result="shape"/>
    </filter>
  </defs>
</svg> 